<mxfile host="app.diagrams.net" modified="2023-06-22T20:56:16.686Z" agent="Mozilla/5.0 (Macintosh; Intel Mac OS X 10.15; rv:109.0) Gecko/20100101 Firefox/114.0" etag="boOoFiwf-LsUQTk0WggD" version="21.5.0" type="github">
  <diagram name="Page-1" id="fy56vQDfwHqwz_DzAptP">
    <mxGraphModel dx="1480" dy="640" grid="1" gridSize="10" guides="1" tooltips="1" connect="1" arrows="1" fold="1" page="1" pageScale="1" pageWidth="827" pageHeight="1169" math="0" shadow="0">
      <root>
        <mxCell id="0" />
        <mxCell id="1" parent="0" />
        <mxCell id="MpOr-RGRmm2lN89lu0Sc-1" value="" style="ellipse;whiteSpace=wrap;html=1;fillColor=none;" vertex="1" parent="1">
          <mxGeometry x="363.5" y="260" width="100" height="100" as="geometry" />
        </mxCell>
        <mxCell id="MpOr-RGRmm2lN89lu0Sc-2" value="" style="ellipse;whiteSpace=wrap;html=1;fillColor=none;" vertex="1" parent="1">
          <mxGeometry x="480" y="260" width="100" height="100" as="geometry" />
        </mxCell>
        <mxCell id="MpOr-RGRmm2lN89lu0Sc-3" value="" style="ellipse;whiteSpace=wrap;html=1;fillColor=none;" vertex="1" parent="1">
          <mxGeometry x="20" y="260" width="100" height="100" as="geometry" />
        </mxCell>
        <mxCell id="MpOr-RGRmm2lN89lu0Sc-9" style="edgeStyle=elbowEdgeStyle;rounded=0;orthogonalLoop=1;jettySize=auto;elbow=vertical;html=1;" edge="1" parent="1" source="MpOr-RGRmm2lN89lu0Sc-4">
          <mxGeometry relative="1" as="geometry">
            <mxPoint x="180" y="190" as="targetPoint" />
          </mxGeometry>
        </mxCell>
        <mxCell id="MpOr-RGRmm2lN89lu0Sc-4" value="" style="ellipse;whiteSpace=wrap;html=1;fillColor=none;" vertex="1" parent="1">
          <mxGeometry x="130" y="260" width="100" height="100" as="geometry" />
        </mxCell>
        <mxCell id="MpOr-RGRmm2lN89lu0Sc-8" style="edgeStyle=elbowEdgeStyle;rounded=0;orthogonalLoop=1;jettySize=auto;elbow=vertical;html=1;exitX=0.5;exitY=0;exitDx=0;exitDy=0;" edge="1" parent="1" source="MpOr-RGRmm2lN89lu0Sc-5">
          <mxGeometry relative="1" as="geometry">
            <mxPoint x="300" y="190" as="targetPoint" />
          </mxGeometry>
        </mxCell>
        <mxCell id="MpOr-RGRmm2lN89lu0Sc-5" value="" style="ellipse;whiteSpace=wrap;html=1;fillColor=none;" vertex="1" parent="1">
          <mxGeometry x="250" y="260" width="100" height="100" as="geometry" />
        </mxCell>
        <mxCell id="MpOr-RGRmm2lN89lu0Sc-6" value="" style="ellipse;whiteSpace=wrap;html=1;fillColor=none;" vertex="1" parent="1">
          <mxGeometry x="600" y="260" width="100" height="100" as="geometry" />
        </mxCell>
      </root>
    </mxGraphModel>
  </diagram>
</mxfile>
